<?xml version="1.0" encoding="utf-8"?>
<!-- Generator: Adobe Illustrator 24.1.1, SVG Export Plug-In . SVG Version: 6.00 Build 0)  -->
<svg version="1.1" id="Layer_1" xmlns="http://www.w3.org/2000/svg" xmlns:xlink="http://www.w3.org/1999/xlink" x="0px" y="0px"
	 viewBox="0 0 800 800" style="enable-background:new 0 0 800 800;" xml:space="preserve">
<style type="text/css">
	.st0{fill:#1F2D7C;}
	.st1{fill:#F2C949;}
</style>
<g>
	<g>
		<g>
			<g>
				
					<rect x="97.4" y="342" transform="matrix(0.7071 -0.7071 0.7071 0.7071 -223.2121 192.9938)" class="st0" width="47.9" height="47.9"/>
				
					<rect x="97.5" y="409.8" transform="matrix(0.7071 -0.7071 0.7071 0.7071 -271.1236 212.8854)" class="st0" width="47.9" height="47.9"/>
				
					<rect x="165.2" y="342" transform="matrix(0.7071 -0.7071 0.7071 0.7071 -203.3461 240.9547)" class="st0" width="47.9" height="47.9"/>
				
					<rect x="165.2" y="409.8" transform="matrix(0.7071 -0.7071 0.7071 0.7071 -251.274 260.8065)" class="st0" width="47.9" height="47.9"/>
			</g>
			
				<rect x="226" y="375.9" transform="matrix(0.7071 -0.7071 0.7071 0.7071 -209.5141 293.8438)" class="st1" width="47.9" height="47.9"/>
			
				<rect x="36.8" y="375.7" transform="matrix(0.7071 -0.7071 0.7071 0.7071 -264.7956 160.0506)" class="st1" width="47.9" height="47.9"/>
			
				<rect x="36.8" y="307.9" transform="matrix(0.7071 -0.7071 0.7071 0.7071 -216.8721 140.2)" class="st1" width="47.9" height="47.9"/>
			
				<rect x="36.8" y="443.5" transform="matrix(0.7071 -0.7071 0.7071 0.7071 -312.7259 179.904)" class="st1" width="47.9" height="47.9"/>
		</g>
		<g>
			
				<rect x="321.2" y="433.1" transform="matrix(0.6424 -0.7663 0.7663 0.6424 -218.0626 404.7111)" class="st0" width="6.9" height="5.8"/>
			<polygon class="st0" points="320.2,362.9 324.7,368.2 329,364.5 324.7,359.2 			"/>
			<path class="st0" d="M388,365.1l1.9-2.2l-4.4-3.7l-4.4,5.4l0,0l-26,31.1l-27.9-33.4c-0.9-1.2-1.6-1.7-2.7-1.7
				c-1.6,0-2.9,1.4-2.9,2.8c0,0.8,0.3,1.5,0.9,2.1l29.3,34.4l-29.4,34.4c-0.6,0.7-1,1.4-1,2.1c0,1.6,1.6,2.8,3,2.8
				c1,0,1.8-0.5,2.7-1.6l28.1-33.6l25.9,31.1l-0.1,0l4.4,5.3l2-1.7c0.2-0.1,0.5-0.3,0.6-0.5l1.8-1.5l-1.5-1.8
				c-0.1-0.2-0.3-0.5-0.5-0.7l-29.4-34.4l29.1-34.4C387.8,365.4,387.9,365.2,388,365.1z"/>
			<rect x="399.7" y="369" class="st0" width="6.2" height="6.2"/>
			<path class="st0" d="M501.7,386.8c-8.9,0-15.6,4.2-19.1,11.3v-6.3v-2.6v-2.4h-5v2.4v2.6v42.7v2.6v2.4h5V437v-2.6v-21.5
				c0-4.5,1.1-8.9,3.2-12.7c3.4-6.1,8.7-8.9,15.2-8.9c5.3,0,9,1.2,11.7,3.7c3.5,3.2,4.8,8.1,4.8,14.9v24.5v2.6v2.4h4.8V437v-2.6
				v-25.8c0-8-2-13.8-6.1-17.4C512.7,388.2,507.8,386.8,501.7,386.8z"/>
			<path class="st0" d="M556.8,386.8c-5.7,0-10.4,1.1-14.1,2.8c-0.7,0.3-1.4,0.6-2,1l0,0l-3.8,2.2l1.2,2c0,0,0,0.1,0,0.1l0.9,1.5
				l2.4-1.4c0.8-0.5,1.9-1.1,3.6-1.8c2.9-1.2,6.5-2.3,11.3-2.3c3.7,0,8,0.8,10.6,3.9c2,2.5,3.2,5.6,3.2,11.1v1.7
				c-8.1,0.6-17.2,1.1-24.1,3.6c-6.4,2.3-10.8,6.3-10.8,13.5c0,10.4,10.1,14.5,18.8,14.5c6,0,10.8-1.1,16.1-3.8v1.5v2.4h5V437v-2.6
				V406c0-6.6-1.6-10.9-4.1-14C567.3,387.7,561.6,386.8,556.8,386.8z M555.3,435.4c-7.4,0-15.4-3-15.4-10.9c0-5.6,4.3-8.6,10-10.4
				c6.3-1.9,14.5-2.1,20.3-2.5v19.6C565.5,434,560.9,435.4,555.3,435.4z"/>
			<path class="st0" d="M764.6,394c-3.9-4.3-9.9-7.2-17.3-7.2c-8.1,0-14.3,2.9-18.3,7.5c-4.3,4.7-6.5,11-6.5,18
				c0,7.5,2.4,13.8,6.2,18.3c4.7,5.5,11.7,8.7,20,8.7c7,0,12.9-2,16.9-4.3c1.1-0.6,1.8-1.1,2.3-1.6l0,0l1.7-1.5l-2.7-2.9l-1.4,1.1
				l0,0c-0.6,0.4-1.3,0.9-2.6,1.6c-3.6,2-8.7,3.4-14,3.4c-7.1,0-12.8-2.7-16.5-7.4c-2.9-3.5-4.5-8.2-4.7-13.6h38.3h1.9h2.9v-3.8h0
				C770.5,403.9,768.5,398.2,764.6,394z M727.5,410.2c0.2-4.7,1.9-9.5,4.6-12.6c3.3-4.1,8.3-6.5,15.1-6.5c6,0,10.7,2.4,13.7,5.9
				c2.9,3,4.7,7.7,4.8,13.3H727.5z"/>
			<polygon class="st0" points="400.5,386.8 400.5,389.1 400.5,391.7 400.5,434.8 400.5,437 400.5,439.8 405.4,439.8 405.4,437 
				405.4,434.8 405.4,391.7 405.4,389.1 405.4,386.8 			"/>
			<path class="st0" d="M665.5,386.8v2.4v2.6v24.8c0,5.3-0.6,8.2-2.4,11.4c-2.3,3.9-7.3,6.9-15.1,6.9c-7.8,0-12.7-2.9-15-6.9
				c-1.7-3.2-2.4-6.1-2.4-11.4v-24.8v-2.6v-2.4h-5v2.4v2.6v25.4c0,6.3,1,10.1,3.4,13.8c3.2,5.2,9.8,8.3,18.9,8.3
				c9.2,0,15.9-3.2,19-8.3c2.4-3.7,3.4-7.5,3.4-13.8v-25.4v-2.6v-2.4H665.5z"/>
			<path class="st0" d="M717.1,389.7c-0.2-0.1-0.4-0.3-0.7-0.5c-1.9-1.2-5.4-2.5-9.5-2.5c-7.3,0-12.8,4.2-15.1,10.4h-0.1v-5.4v-2.6
				v-2.4h-5v2.4v2.6v42.7v2.6v2.4h5V437v-2.6v-23.2c0-5,1.5-10.7,4.3-14.5c2.7-3.7,6.3-5.4,10.2-5.4c2.4,0,4.2,0.5,5.7,1.2
				c1.5,0.7,2.4,1.3,3.1,1.7l0,0l2.1,1.4l3.2-3.5L717.1,389.7L717.1,389.7z"/>
			<path class="st0" d="M763.5,431.2l3.2-2.2l2.7,2.9c0,0-1.1,1.2-2.2,2c-1.1,0.8-2.3-1-2.3-1C764.9,432.9,763.5,431.2,763.5,431.2z
				"/>
			<path class="st0" d="M715.5,388.8c0,0,3.1,1.7,4.8,3.4l-0.4,0.4l-5-3.2L715.5,388.8z"/>
			<path class="st0" d="M613,433.8c0,0,2.7-1.3,5.6-3.3l2.4,3.2c0,0-2,1.8-4.6,3.2L613,433.8z"/>
			<path class="st0" d="M618.6,430.5c-1.7,1.2-3.2,2.1-4.3,2.7c-1.7,0.9-3.9,1.9-6.9,1.9c-8.6,0-11.3-4.7-11.3-12.9v-30.4h16.1h2.2
				h1.9v-3.9h-1.8c0,0-0.1,0-0.1,0h-18.2v-8.9c0,0,0,0,0,0v-2.3h-5v5h0v6.3h-5.5c0,0-0.1,0-0.1,0h-1.8v3.9h1.9h2.3h3.2v30.7
				c0,9.8,3.7,16.9,15.4,16.9c3.4,0,6.4-0.8,9-2c1.2-0.6,2.3-1.2,3.1-1.9l0,0c0.1,0,2.3-1.7,2.3-1.7L618.6,430.5z"/>
			<path class="st0" d="M455.5,386.8v2.4v2.6v0.9c-3.6-2.8-8.6-5.9-16.8-5.9c-7,0-12.3,2.8-15.9,7.1c-4.3,5-6.3,12-6.3,19
				c0,7.3,2.1,14.3,6.3,19.2c3.7,4.3,8.9,7.1,16,7.1c6.1,0,11.6-1.5,16.7-6.1v7.5c0,6.1-1.4,10.9-4.2,14.3c-2.7,3.2-7.1,5-13.4,5
				c-2.7,0-5.4-0.4-8-1.5l0,0c0,0-0.3-0.1-0.7-0.3c-0.1-0.1-0.2-0.1-0.4-0.2c-1-0.5-2.5-1.3-3.4-2l0,0c-1.5-1-3.2-2.6-4.3-3.7
				l-1,1.2c-0.1,0.1-0.1,0.2-0.2,0.2l-1.4,1.6c2.5,2.8,5.2,4.6,7,5.7c0,0,0,0,0.1,0c0,0,0.1,0,0.1,0.1c0.5,0.3,0.8,0.5,1.1,0.6
				c0.1,0,0.1,0.1,0.2,0.1c0.3,0.2,0.5,0.2,0.5,0.2s0,0,0,0c3.1,1.4,6.5,2.1,10.7,2.1c7.4,0,12.9-2,16.7-6.1
				c3.8-4.1,5.7-10.1,5.7-17.9v-48.3h0v-5H455.5z M455.5,428.4c-4.4,4.4-9.3,6.4-16.2,6.4c-5.9,0-10-2.3-12.9-6
				c-3.3-4.2-4.7-9.8-4.7-16c0-6.1,1.5-11.6,4.7-15.6c2.9-3.7,7.2-6.2,12.9-6.2c8.4,0,12.8,3.4,16.2,6.2V428.4z"/>
		</g>
	</g>
	<polygon class="st1" points="543.2,497.7 578.9,497.7 621,456.4 585.2,456.4 	"/>
	<polygon class="st1" points="558.1,456.4 526.8,456.4 482.4,497.7 516,497.7 	"/>
	<g>
		<path class="st0" d="M741.3,473.1c-3.8,0-5.7,3.2-5.8,6h11.7C747.2,476.4,745.4,473.1,741.3,473.1z"/>
		<path class="st0" d="M648.1,456.4l-42,41.3H770v-41.3H648.1z M677.6,489.1h-8.4v-24.7h8.4c7.7,0,12.7,5.4,12.7,12.4
			C690.2,483.8,685.2,489.1,677.6,489.1z M703.7,473.7c-0.3-0.1-0.7-0.1-1.1-0.1c-1.7,0-4,1.4-4.8,2.8v12.7h-2.8v-17.9h2.8v2.9
			c1.4-1.9,3.5-3.3,6-3.3V473.7z M709.9,489.1h-2.8v-17.9h2.8V489.1z M708.5,468.7c-1,0-1.8-0.8-1.8-1.8s0.9-1.9,1.8-1.9
			c1,0,1.9,0.9,1.9,1.9S709.5,468.7,708.5,468.7z M723.3,489.1h-3l-7.4-17.9h3l6,14.7l5.9-14.7h3L723.3,489.1z M749.9,481.1h-14.5
			c0.2,3.4,2.6,6.2,6.4,6.2c2,0,4.1-0.8,5.5-2.3l1.3,1.8c-1.8,1.8-4.2,2.7-7.1,2.7c-5.3,0-9.1-3.8-9.1-9.4c0-5.2,3.7-9.4,8.8-9.4
			c5.4,0,8.6,4.2,8.6,9.6V481.1z"/>
		<path class="st0" d="M677.6,467.2h-5.4v19.2h5.4c6,0,9.5-4.3,9.5-9.6C687,471.5,683.7,467.2,677.6,467.2z"/>
	</g>
</g>
</svg>
