<?xml version="1.0" encoding="utf-8"?>
<!-- Generator: Adobe Illustrator 24.1.1, SVG Export Plug-In . SVG Version: 6.00 Build 0)  -->
<svg version="1.1" id="Layer_1" xmlns="http://www.w3.org/2000/svg" xmlns:xlink="http://www.w3.org/1999/xlink" x="0px" y="0px"
	 viewBox="0 0 800 800" style="enable-background:new 0 0 800 800;" xml:space="preserve">
<style type="text/css">
	.st0{fill:#1F2D7C;}
	.st1{fill:#FFFFFF;}
	.st2{fill:#F2C949;}
</style>
<rect class="st0" width="800" height="800"/>
<g>
	<g>
		<g>
			<g>
				
					<rect x="279.8" y="201.8" transform="matrix(0.7071 -0.7071 0.7071 0.7071 -82.1904 308.7039)" class="st1" width="103.5" height="103.5"/>
				
					<rect x="279.9" y="348.2" transform="matrix(0.7071 -0.7071 0.7071 0.7071 -185.6599 351.6617)" class="st1" width="103.5" height="103.5"/>
				
					<rect x="426.3" y="201.8" transform="matrix(0.7071 -0.7071 0.7071 0.7071 -39.2877 412.2802)" class="st1" width="103.5" height="103.5"/>
				
					<rect x="426.3" y="348.2" transform="matrix(0.7071 -0.7071 0.7071 0.7071 -142.7928 455.152)" class="st1" width="103.5" height="103.5"/>
			</g>
			
				<rect x="557.5" y="275" transform="matrix(0.7071 -0.7071 0.7071 0.7071 -52.6081 526.4994)" class="st2" width="103.5" height="103.5"/>
			
				<rect x="149" y="274.6" transform="matrix(0.7071 -0.7071 0.7071 0.7071 -171.9941 237.5599)" class="st2" width="103.5" height="103.5"/>
			
				<rect x="149" y="128.3" transform="matrix(0.7071 -0.7071 0.7071 0.7071 -68.4984 194.6906)" class="st2" width="103.5" height="103.5"/>
			
				<rect x="149" y="421" transform="matrix(0.7071 -0.7071 0.7071 0.7071 -275.5042 280.4352)" class="st2" width="103.5" height="103.5"/>
		</g>
	</g>
	<g>
		<polygon class="st2" points="244.4,705.2 313.6,705.2 394.9,625.3 325.7,625.3 		"/>
		<polygon class="st2" points="273.2,625.3 212.7,625.3 126.8,705.2 191.9,705.2 		"/>
		<g>
			<path class="st1" d="M627.7,657.6c-7.4,0-11,6.2-11.3,11.5h22.7C639,664,635.6,657.6,627.7,657.6z"/>
			<path class="st1" d="M447.3,625.3L366,705.2h317.1v-79.8H447.3z M504.4,688.6h-16.3v-47.7h16.3c14.8,0,24.5,10.4,24.5,23.9
				C528.9,678.3,519.2,688.6,504.4,688.6z M554.8,658.8c-0.6-0.1-1.3-0.2-2.1-0.2c-3.3,0-7.8,2.7-9.4,5.5v24.5h-5.4V654h5.4v5.6
				c2.8-3.6,6.8-6.3,11.5-6.3V658.8z M566.9,688.6h-5.4V654h5.4V688.6z M564.2,649.1c-1.9,0-3.6-1.6-3.6-3.6c0-2,1.6-3.7,3.6-3.7
				c2,0,3.7,1.6,3.7,3.7C567.9,647.5,566.2,649.1,564.2,649.1z M592.8,688.6h-5.9L572.5,654h5.8l11.5,28.3l11.5-28.3h5.9
				L592.8,688.6z M644.4,673h-28c0.4,6.5,5,12,12.5,12c3.9,0,7.9-1.6,10.7-4.4l2.6,3.5c-3.4,3.4-8.1,5.3-13.7,5.3
				c-10.2,0-17.6-7.4-17.6-18.2c0-10,7.2-18.1,17-18.1c10.4,0,16.6,8.2,16.6,18.5V673z"/>
			<path class="st1" d="M504.4,646.1H494v37.1h10.4c11.6,0,18.3-8.3,18.3-18.5C522.7,654.4,516.2,646.1,504.4,646.1z"/>
		</g>
	</g>
</g>
</svg>
